ModelForces
version=1
nRows=46
nColumns=15
inDegrees=no

This file contains the forces exerted on a model during a simulation.

A force is a generalized force, meaning that it can be either a force (N) or a torque (Nm).

Units are S.I. units (second, meters, Newtons, ...)
Angles are in degrees.

endheader
time	Liu	Thelen	contactForce.block.force.X	contactForce.block.force.Y	contactForce.block.force.Z	contactForce.block.torque.X	contactForce.block.torque.Y	contactForce.block.torque.Z	contactForce.ground.force.X	contactForce.ground.force.Y	contactForce.ground.force.Z	contactForce.ground.torque.X	contactForce.ground.torque.Y	contactForce.ground.torque.Z
      3.75048521	    842.49597929	    837.89107499	     -9.80411052	    281.03317465	      0.48042450	     -0.02388617	     -0.00000000	     -0.48744939	      9.80411052	   -281.03317465	     -0.48042450	      0.96419069	      0.03274684	      0.52054608
      3.75084462	    842.59341639	    838.03614077	     -9.49877524	    269.60648197	      0.38221918	     -0.01900788	     -0.00000000	     -0.47237700	      9.49877524	   -269.60648197	     -0.38221918	      0.92502363	      0.03188130	      0.50019965
      3.75120403	    842.67259608	    838.18859854	     -9.19421453	    257.69677768	      0.28864362	     -0.01435777	     -0.00000000	     -0.45734061	      9.19421453	   -257.69677768	     -0.28864362	      0.88418925	      0.03101008	      0.47888473
      3.75156344	    842.73349772	    838.34850637	     -8.88851193	    245.38130808	      0.20011801	     -0.00995678	     -0.00000000	     -0.44224376	      8.88851193	   -245.38130808	     -0.20011801	      0.84195336	      0.03012581	      0.45674040
      3.75192286	    842.77622884	    838.51467106	     -8.58000771	    232.73993676	      0.11708432	     -0.00582696	     -0.00000000	     -0.42700276	      8.58000771	   -232.73993676	     -0.11708432	      0.79859092	      0.02922194	      0.43391169
      3.75224337	    842.79919608	    838.66817914	     -8.30138219	    221.25826977	      0.04802392	     -0.00239057	     -0.00000000	     -0.41323170	      8.30138219	   -221.25826977	     -0.04802392	      0.75920010	      0.02839474	      0.41309801
      3.75256389	    842.80814591	    838.82574830	     -8.01859688	    209.64178846	     -0.01601576	      0.00079743	     -0.00000000	     -0.39924820	      8.01859688	   -209.64178846	      0.01601576	      0.71934170	      0.02754407	      0.39196847
      3.75295454	    842.80057745	    839.02296888	     -7.66738913	    195.38810182	     -0.08686861	      0.00432645	     -0.00000000	     -0.38187079	      7.66738913	   -195.38810182	      0.08686861	      0.67042896	      0.02647157	      0.36594976
      3.75334519	    842.77340826	    839.22462689	     -7.30825219	    181.13228915	     -0.14937831	      0.00744185	     -0.00000000	     -0.36408837	      7.30825219	   -181.13228915	      0.14937831	      0.62150420	      0.02535646	      0.33983101
      3.75367104	    842.73639246	    839.39585366	     -7.00234378	    169.31866273	     -0.19486126	      0.00971006	     -0.00000000	     -0.34893113	      7.00234378	   -169.31866273	      0.19486126	      0.58095821	      0.02439222	      0.31811715
      3.75399688	    842.68695236	    839.56880518	     -6.69068668	    157.64246166	     -0.23411161	      0.01166866	     -0.00000000	     -0.33347922	      6.69068668	   -157.64246166	      0.23411161	      0.54088230	      0.02339668	      0.29659605
      3.75438937	    842.61185144	    839.77893854	     -6.30809961	    143.84905447	     -0.27298112	      0.01360977	     -0.00000000	     -0.31449725	      6.30809961	   -143.84905447	      0.27298112	      0.49353839	      0.02215721	      0.27109804
      3.75478185	    842.52097044	    839.98965198	     -5.91869106	    130.45184696	     -0.30264340	      0.01509268	     -0.00000000	     -0.29516219	      5.91869106	   -130.45184696	      0.30264340	      0.44755407	      0.02087715	      0.24625668
      3.75509641	    842.43768321	    840.15858200	     -5.60284283	    120.07054248	     -0.31987085	      0.01595512	     -0.00000000	     -0.27946919	      5.60284283	   -120.07054248	      0.31987085	      0.41192181	      0.01982610	      0.22695684
      3.75541096	    842.34593095	    840.32656065	     -5.28501195	    110.06188479	     -0.33145899	      0.01653646	     -0.00000000	     -0.26366874	      5.28501195	   -110.06188479	      0.33145899	      0.37756930	      0.01875766	      0.20830818
      3.75581802	    842.21596291	    840.54200660	     -4.87348153	     97.74400144	     -0.33853906	      0.01689385	     -0.00000000	     -0.24319758	      4.87348153	    -97.74400144	      0.33853906	      0.33529234	      0.01735935	      0.18530085
      3.75622507	    842.07503242	    840.75384217	     -4.46589656	     86.23566106	     -0.33747381	      0.01684458	     -0.00000000	     -0.22290960	      4.46589656	    -86.23566106	      0.33747381	      0.29579585	      0.01595923	      0.16374951
      3.75653001	    841.96343025	    840.90983103	     -4.16649032	     78.20257546	     -0.33200183	      0.01657412	     -0.00000000	     -0.20799860	      4.16649032	    -78.20257546	      0.33200183	      0.26822784	      0.01492187	      0.14867383
      3.75683494	    841.84758955	    841.06262072	     -3.87524033	     70.71520763	     -0.32315412	      0.01613485	     -0.00000000	     -0.19348791	      3.87524033	    -70.71520763	      0.32315412	      0.24253388	      0.01390610	      0.13459817
      3.75725983	    841.68071360	    841.26974676	     -3.48904895	     61.25810084	     -0.30644417	      0.01530343	     -0.00000000	     -0.17423867	      3.48904895	    -61.25810084	      0.30644417	      0.21008244	      0.01254979	      0.11678615
      3.75768471	    841.50956371	    841.46884088	     -3.13448216	     53.01374558	     -0.28643944	      0.01430678	     -0.00000000	     -0.15655791	      3.13448216	    -53.01374558	      0.28643944	      0.18179440	      0.01129569	      0.10122828
      3.75798378	    841.38777768	    841.60398213	     -2.90957555	     47.97869542	     -0.27153668	      0.01356380	     -0.00000000	     -0.14533916	      2.90957555	    -47.97869542	      0.27153668	      0.16451902	      0.01049600	      0.09171375
      3.75828286	    841.26581764	    841.73424327	     -2.70950034	     43.60450775	     -0.25682097	      0.01282985	     -0.00000000	     -0.13535685	      2.70950034	    -43.60450775	      0.25682097	      0.14951154	      0.00978181	      0.08344141
      3.75870976	    841.09298114	    841.91160755	     -2.47482431	     38.54400344	     -0.23758915	      0.01187030	     -0.00000000	     -0.12364582	      2.47482431	    -38.54400344	      0.23758915	      0.13214952	      0.00894035	      0.07386772
      3.75908483	    840.94391772	    842.05842138	     -2.32617190	     35.27890964	     -0.22376860	      0.01118054	     -0.00000000	     -0.11622652	      2.32617190	    -35.27890964	      0.22376860	      0.12094673	      0.00840421	      0.06769664
      3.75945990	    840.79897299	    842.19671237	     -2.23898672	     33.14293756	     -0.21390765	      0.01068829	     -0.00000000	     -0.11187513	      2.23898672	    -33.14293756	      0.21390765	      0.11361638	      0.00808639	      0.06367706
      3.75983496	    840.65951914	    842.32576126	     -2.21976929	     32.15127894	     -0.20864934	      0.01042576	     -0.00000000	     -0.11091710	      2.21976929	    -32.15127894	      0.20864934	      0.11020981	      0.00801040	      0.06184663
      3.76014875	    840.54800852	    842.42696078	     -2.25984813	     32.20619081	     -0.20791939	      0.01038927	     -0.00000000	     -0.11291963	      2.25984813	    -32.20619081	      0.20791939	      0.11039234	      0.00814638	      0.06201347
      3.76046254	    840.44195513	    842.52154011	     -2.35367561	     33.06694770	     -0.21032342	      0.01050922	     -0.00000000	     -0.11760595	      2.35367561	    -33.06694770	      0.21032342	      0.11333716	      0.00847261	      0.06373234
      3.76086603	    840.31466760	    842.63434877	     -2.55583966	     35.35088537	     -0.21715911	      0.01085028	     -0.00000000	     -0.12770164	      2.55583966	    -35.35088537	      0.21715911	      0.12115818	      0.00917869	      0.06821668
      3.76126952	    840.19880135	    842.73720692	     -2.85096435	     38.94139610	     -0.22643991	      0.01131318	     -0.00000000	     -0.14243721	      2.85096435	    -38.94139610	      0.22643991	      0.13345670	      0.01020806	      0.07523337
      3.76158184	    840.11771523	    842.80993262	     -3.14285315	     42.59948295	     -0.23361461	      0.01167078	     -0.00000000	     -0.15700879	      3.14285315	    -42.59948295	      0.23361461	      0.14598780	      0.01122224	      0.08237334
      3.76189416	    840.04468913	    842.87633146	     -3.48889615	     47.00517395	     -0.23907358	      0.01194244	     -0.00000000	     -0.17428084	      3.48889615	    -47.00517395	      0.23907358	      0.16108043	      0.01241867	      0.09097092
      3.76230713	    839.96129308	    842.95448213	     -4.02650868	     53.94124321	     -0.24053605	      0.01201383	     -0.00000000	     -0.20110828	      4.02650868	    -53.94124321	      0.24053605	      0.18484195	      0.01426378	      0.10451060
      3.76272009	    839.89378964	    843.02140121	     -4.65027918	     62.08691807	     -0.23107270	      0.01153929	     -0.00000000	     -0.23222530	      4.65027918	    -62.08691807	      0.23107270	      0.21274783	      0.01638289	      0.12042271
      3.76302015	    839.85523020	    843.06378192	     -5.15395783	     68.72476583	     -0.21442622	      0.01070658	     -0.00000000	     -0.25734377	      5.15395783	    -68.72476583	      0.21442622	      0.23548849	      0.01807648	      0.13339957
      3.76332020	    839.82586686	    843.10105723	     -5.69720081	     75.93452802	     -0.18725025	      0.00934830	     -0.00000000	     -0.28442753	      5.69720081	    -75.93452802	      0.18725025	      0.26018893	      0.01988514	      0.14750518
      3.76375225	    839.80037727	    843.14648311	     -6.54366846	     87.25434635	     -0.12546253	      0.00626218	     -0.00000000	     -0.32661262	      6.54366846	    -87.25434635	      0.12546253	      0.29897147	      0.02266544	      0.16967435
      3.76412269	    839.79493390	    843.17776159	     -7.32464442	     97.76937833	     -0.04710669	      0.00235073	     -0.00000000	     -0.36551630	      7.32464442	    -97.76937833	      0.04710669	      0.33499837	      0.02518895	      0.19029162
      3.76449312	    839.80526607	    843.20249951	     -8.15178310	    108.95552684	      0.05846870	     -0.00291707	     -0.00000000	     -0.40670125	      8.15178310	   -108.95552684	     -0.05846870	      0.37332680	      0.02781749	      0.21225011
      3.76486355	    839.83198465	    843.22048512	     -9.02070378	    120.73558471	      0.19449970	     -0.00970151	     -0.00000000	     -0.44994642	      9.02070378	   -120.73558471	     -0.19449970	      0.41369308	      0.03052967	      0.23540258
      3.76519337	    839.87008366	    843.23137898	     -9.82599728	    131.65815910	      0.34347837	     -0.01712871	     -0.00000000	     -0.49000663	      9.82599728	   -131.65815910	     -0.34347837	      0.45112417	      0.03299839	      0.25689570
      3.76552320	    839.92215977	    843.23710283	    -10.65771878	    142.92735291	      0.52028192	     -0.02593976	     -0.00000000	     -0.53136319	     10.65771878	   -142.92735291	     -0.52028192	      0.48974676	      0.03550317	      0.27909748
      3.76585302	    839.98871991	    843.23801588	    -11.51223020	    154.48147354	      0.72588634	     -0.03618222	     -0.00000000	     -0.57383371	     11.51223020	   -154.48147354	     -0.72588634	      0.52935031	      0.03802958	      0.30188941
      3.76628470	    840.09861927	    843.23162478	    -12.65778585	    169.92899696	      1.03897444	     -0.05177223	     -0.00000000	     -0.63073914	     12.65778585	   -169.92899696	     -1.03897444	      0.58230728	      0.04134289	      0.33240906
      3.76662114	    840.20292709	    843.22091482	    -13.56465517	    182.13815536	      1.31677418	     -0.06559896	     -0.00000000	     -0.67576302	     13.56465517	   -182.13815536	     -1.31677418	      0.62417024	      0.04390695	      0.35657133
